# xmcd
#
# Track frame offsets: 
#        150
#        16172
#        29088
#        52791
#        65741
#        85471
#        101833
#        120115
#        138147
#        158855
#
# Disc length: 2245 seconds
#
# Revision: 0
# Processed by: cddbd v1.5.2PL0 Copyright (c) Steve Scherf et al.
# Submitted via: ExactAudioCopy v0.95a4
#
DISCID=7b08c30a
DTITLE=Dwayne Dopsie And The Zydeco Hellraisers - Top Of The Mountain
DYEAR=2017
DGENRE=Folk
TTITLE0=Roseliee
TTITLE1=Old Time Zydeco
TTITLE2=Everybody Talking
TTITLE3=My Life Is Now Complete
TTITLE4=Voodoo Child
TTITLE5=Gotcha Baby On My Mind
TTITLE6=Ma Ti Femmee
TTITLE7=Roller Coaster
TTITLE8=Just A Man
TTITLE9=Get Down
EXTD=
EXTT0=
EXTT1=
EXTT2=
EXTT3=
EXTT4=
EXTT5=
EXTT6=
EXTT7=
EXTT8=
EXTT9=
PLAYORDER=
